<?xml version="1.0" encoding="UTF-8" standalone="no"?>
<!-- Created with Inkscape (http://www.inkscape.org/) -->

<svg
   xmlns:dc="http://purl.org/dc/elements/1.1/"
   xmlns:cc="http://creativecommons.org/ns#"
   xmlns:rdf="http://www.w3.org/1999/02/22-rdf-syntax-ns#"
   xmlns:svg="http://www.w3.org/2000/svg"
   xmlns="http://www.w3.org/2000/svg"
   xmlns:xlink="http://www.w3.org/1999/xlink"
   xmlns:sodipodi="http://sodipodi.sourceforge.net/DTD/sodipodi-0.dtd"
   xmlns:inkscape="http://www.inkscape.org/namespaces/inkscape"
   width="744.09448819"
   height="1052.3622047"
   id="svg2"
   version="1.1"
   inkscape:version="0.48.3.1 r9886"
   sodipodi:docname="icon.svg"
   inkscape:export-filename="/home/mom/blackberry-py/contap/icon.png"
   inkscape:export-xdpi="57.599998"
   inkscape:export-ydpi="57.599998">
  <defs
     id="defs4">
    <linearGradient
       id="linearGradient6027">
      <stop
         style="stop-color:#087099;stop-opacity:1;"
         offset="0"
         id="stop6029" />
      <stop
         style="stop-color:#0092cc;stop-opacity:1;"
         offset="1"
         id="stop6031" />
    </linearGradient>
    <linearGradient
       x1="0.25781199"
       y1="0"
       x2="1.007812"
       y2="0"
       id="linearGradient12052"
       xlink:href="#linearGradient9704"
       gradientUnits="userSpaceOnUse"
       gradientTransform="matrix(0,-100.79013,100.79013,0,237.26938,444.47188)"
       spreadMethod="pad" />
    <linearGradient
       x1="0.25781199"
       y1="0"
       x2="1.007812"
       y2="0"
       id="linearGradient9704"
       gradientUnits="userSpaceOnUse"
       gradientTransform="matrix(0,80.632102,80.632102,0,232.59412,326.04746)"
       spreadMethod="pad">
      <stop
         id="stop9706"
         style="stop-color:#78c3ed;stop-opacity:1"
         offset="0" />
      <stop
         id="stop9708"
         style="stop-color:#77c3ed;stop-opacity:1"
         offset="0.00390625" />
      <stop
         id="stop9710"
         style="stop-color:#76c3ed;stop-opacity:1"
         offset="0.0078125" />
      <stop
         id="stop9712"
         style="stop-color:#75c2ed;stop-opacity:1"
         offset="0.0117188" />
      <stop
         id="stop9714"
         style="stop-color:#74c2ec;stop-opacity:1"
         offset="0.015625" />
      <stop
         id="stop9716"
         style="stop-color:#72c1ec;stop-opacity:1"
         offset="0.0195312" />
      <stop
         id="stop9718"
         style="stop-color:#71c1ec;stop-opacity:1"
         offset="0.0234375" />
      <stop
         id="stop9720"
         style="stop-color:#70c1ec;stop-opacity:1"
         offset="0.0273437" />
      <stop
         id="stop9722"
         style="stop-color:#6fc0eb;stop-opacity:1"
         offset="0.03125" />
      <stop
         id="stop9724"
         style="stop-color:#6ec0eb;stop-opacity:1"
         offset="0.0351562" />
      <stop
         id="stop9726"
         style="stop-color:#6dc0eb;stop-opacity:1"
         offset="0.0390625" />
      <stop
         id="stop9728"
         style="stop-color:#6cc0eb;stop-opacity:1"
         offset="0.0429687" />
      <stop
         id="stop9730"
         style="stop-color:#6bbfeb;stop-opacity:1"
         offset="0.046875" />
      <stop
         id="stop9732"
         style="stop-color:#6abfeb;stop-opacity:1"
         offset="0.0507812" />
      <stop
         id="stop9734"
         style="stop-color:#69bfeb;stop-opacity:1"
         offset="0.0546875" />
      <stop
         id="stop9736"
         style="stop-color:#68beeb;stop-opacity:1"
         offset="0.0585937" />
      <stop
         id="stop9738"
         style="stop-color:#67beea;stop-opacity:1"
         offset="0.0625" />
      <stop
         id="stop9740"
         style="stop-color:#66bdea;stop-opacity:1"
         offset="0.0664062" />
      <stop
         id="stop9742"
         style="stop-color:#65bdea;stop-opacity:1"
         offset="0.0703125" />
      <stop
         id="stop9744"
         style="stop-color:#64bdea;stop-opacity:1"
         offset="0.0742187" />
      <stop
         id="stop9746"
         style="stop-color:#63bcea;stop-opacity:1"
         offset="0.078125" />
      <stop
         id="stop9748"
         style="stop-color:#62bcea;stop-opacity:1"
         offset="0.0820312" />
      <stop
         id="stop9750"
         style="stop-color:#61bcea;stop-opacity:1"
         offset="0.0859375" />
      <stop
         id="stop9752"
         style="stop-color:#60bbe9;stop-opacity:1"
         offset="0.0898438" />
      <stop
         id="stop9754"
         style="stop-color:#5fbae9;stop-opacity:1"
         offset="0.09375" />
      <stop
         id="stop9756"
         style="stop-color:#5ebae9;stop-opacity:1"
         offset="0.0976562" />
      <stop
         id="stop9758"
         style="stop-color:#5dbae9;stop-opacity:1"
         offset="0.101562" />
      <stop
         id="stop9760"
         style="stop-color:#5cb9e9;stop-opacity:1"
         offset="0.105469" />
      <stop
         id="stop9762"
         style="stop-color:#5bb9e9;stop-opacity:1"
         offset="0.109375" />
      <stop
         id="stop9764"
         style="stop-color:#5ab9e9;stop-opacity:1"
         offset="0.113281" />
      <stop
         id="stop9766"
         style="stop-color:#58b9e9;stop-opacity:1"
         offset="0.117187" />
      <stop
         id="stop9768"
         style="stop-color:#57b8e8;stop-opacity:1"
         offset="0.121094" />
      <stop
         id="stop9770"
         style="stop-color:#56b8e8;stop-opacity:1"
         offset="0.125" />
      <stop
         id="stop9772"
         style="stop-color:#55b8e8;stop-opacity:1"
         offset="0.128906" />
      <stop
         id="stop9774"
         style="stop-color:#54b8e8;stop-opacity:1"
         offset="0.13281199" />
      <stop
         id="stop9776"
         style="stop-color:#53b7e8;stop-opacity:1"
         offset="0.136719" />
      <stop
         id="stop9778"
         style="stop-color:#52b7e8;stop-opacity:1"
         offset="0.140625" />
      <stop
         id="stop9780"
         style="stop-color:#50b7e8;stop-opacity:1"
         offset="0.144531" />
      <stop
         id="stop9782"
         style="stop-color:#4fb6e8;stop-opacity:1"
         offset="0.14843699" />
      <stop
         id="stop9784"
         style="stop-color:#4eb6e7;stop-opacity:1"
         offset="0.152344" />
      <stop
         id="stop9786"
         style="stop-color:#4db5e7;stop-opacity:1"
         offset="0.15625" />
      <stop
         id="stop9788"
         style="stop-color:#4bb5e7;stop-opacity:1"
         offset="0.160156" />
      <stop
         id="stop9790"
         style="stop-color:#4ab5e7;stop-opacity:1"
         offset="0.16406199" />
      <stop
         id="stop9792"
         style="stop-color:#49b4e7;stop-opacity:1"
         offset="0.167969" />
      <stop
         id="stop9794"
         style="stop-color:#48b4e7;stop-opacity:1"
         offset="0.171875" />
      <stop
         id="stop9796"
         style="stop-color:#46b4e7;stop-opacity:1"
         offset="0.175781" />
      <stop
         id="stop9798"
         style="stop-color:#45b4e7;stop-opacity:1"
         offset="0.17968801" />
      <stop
         id="stop9800"
         style="stop-color:#43b3e6;stop-opacity:1"
         offset="0.183594" />
      <stop
         id="stop9802"
         style="stop-color:#41b3e6;stop-opacity:1"
         offset="0.1875" />
      <stop
         id="stop9804"
         style="stop-color:#40b3e6;stop-opacity:1"
         offset="0.191406" />
      <stop
         id="stop9806"
         style="stop-color:#3eb2e6;stop-opacity:1"
         offset="0.19531199" />
      <stop
         id="stop9808"
         style="stop-color:#3db2e6;stop-opacity:1"
         offset="0.199219" />
      <stop
         id="stop9810"
         style="stop-color:#3bb1e6;stop-opacity:1"
         offset="0.203125" />
      <stop
         id="stop9812"
         style="stop-color:#3ab1e6;stop-opacity:1"
         offset="0.207031" />
      <stop
         id="stop9814"
         style="stop-color:#38b1e6;stop-opacity:1"
         offset="0.21093699" />
      <stop
         id="stop9816"
         style="stop-color:#36b0e5;stop-opacity:1"
         offset="0.214844" />
      <stop
         id="stop9818"
         style="stop-color:#34b0e5;stop-opacity:1"
         offset="0.21875" />
      <stop
         id="stop9820"
         style="stop-color:#32b0e5;stop-opacity:1"
         offset="0.222656" />
      <stop
         id="stop9822"
         style="stop-color:#30b0e5;stop-opacity:1"
         offset="0.22656199" />
      <stop
         id="stop9824"
         style="stop-color:#2eafe5;stop-opacity:1"
         offset="0.230469" />
      <stop
         id="stop9826"
         style="stop-color:#2cafe5;stop-opacity:1"
         offset="0.234375" />
      <stop
         id="stop9828"
         style="stop-color:#2aafe5;stop-opacity:1"
         offset="0.238281" />
      <stop
         id="stop9830"
         style="stop-color:#27aee4;stop-opacity:1"
         offset="0.24218699" />
      <stop
         id="stop9832"
         style="stop-color:#25aee4;stop-opacity:1"
         offset="0.246094" />
      <stop
         id="stop9834"
         style="stop-color:#23aee4;stop-opacity:1"
         offset="0.25" />
      <stop
         id="stop9836"
         style="stop-color:#20ade4;stop-opacity:1"
         offset="0.25390601" />
      <stop
         id="stop9838"
         style="stop-color:#1cade4;stop-opacity:1"
         offset="0.25781199" />
      <stop
         id="stop9840"
         style="stop-color:#19ace4;stop-opacity:1"
         offset="0.26171899" />
      <stop
         id="stop9842"
         style="stop-color:#16ace4;stop-opacity:1"
         offset="0.265625" />
      <stop
         id="stop9844"
         style="stop-color:#0face4;stop-opacity:1"
         offset="0.26953101" />
      <stop
         id="stop9846"
         style="stop-color:#0aabe3;stop-opacity:1"
         offset="0.27343801" />
      <stop
         id="stop9848"
         style="stop-color:#06abe3;stop-opacity:1"
         offset="0.27734399" />
      <stop
         id="stop9850"
         style="stop-color:#01abe3;stop-opacity:1"
         offset="0.28125" />
      <stop
         id="stop9852"
         style="stop-color:#00aae3;stop-opacity:1"
         offset="0.296875" />
      <stop
         id="stop9854"
         style="stop-color:#00aae3;stop-opacity:1"
         offset="0.296875" />
      <stop
         id="stop9856"
         style="stop-color:#00a9e2;stop-opacity:1"
         offset="0.3125" />
      <stop
         id="stop9858"
         style="stop-color:#00a9e2;stop-opacity:1"
         offset="0.3125" />
      <stop
         id="stop9860"
         style="stop-color:#00a8e2;stop-opacity:1"
         offset="0.328125" />
      <stop
         id="stop9862"
         style="stop-color:#00a8e2;stop-opacity:1"
         offset="0.328125" />
      <stop
         id="stop9864"
         style="stop-color:#00a7e1;stop-opacity:1"
         offset="0.34375" />
      <stop
         id="stop9866"
         style="stop-color:#00a7e1;stop-opacity:1"
         offset="0.34375" />
      <stop
         id="stop9868"
         style="stop-color:#00a6e1;stop-opacity:1"
         offset="0.359375" />
      <stop
         id="stop9870"
         style="stop-color:#00a6e1;stop-opacity:1"
         offset="0.359375" />
      <stop
         id="stop9872"
         style="stop-color:#00a5e0;stop-opacity:1"
         offset="0.375" />
      <stop
         id="stop9874"
         style="stop-color:#00a5e0;stop-opacity:1"
         offset="0.375" />
      <stop
         id="stop9876"
         style="stop-color:#00a4e0;stop-opacity:1"
         offset="0.37890601" />
      <stop
         id="stop9878"
         style="stop-color:#00a3e0;stop-opacity:1"
         offset="0.38281301" />
      <stop
         id="stop9880"
         style="stop-color:#00a2e0;stop-opacity:1"
         offset="0.39843801" />
      <stop
         id="stop9882"
         style="stop-color:#00a2e0;stop-opacity:1"
         offset="0.39843801" />
      <stop
         id="stop9884"
         style="stop-color:#00a1df;stop-opacity:1"
         offset="0.41406199" />
      <stop
         id="stop9886"
         style="stop-color:#00a1df;stop-opacity:1"
         offset="0.41406199" />
      <stop
         id="stop9888"
         style="stop-color:#00a0df;stop-opacity:1"
         offset="0.42968801" />
      <stop
         id="stop9890"
         style="stop-color:#00a0df;stop-opacity:1"
         offset="0.42968801" />
      <stop
         id="stop9892"
         style="stop-color:#009fde;stop-opacity:1"
         offset="0.44531199" />
      <stop
         id="stop9894"
         style="stop-color:#009fde;stop-opacity:1"
         offset="0.44531199" />
      <stop
         id="stop9896"
         style="stop-color:#009ede;stop-opacity:1"
         offset="0.46093801" />
      <stop
         id="stop9898"
         style="stop-color:#009ede;stop-opacity:1"
         offset="0.46093801" />
      <stop
         id="stop9900"
         style="stop-color:#009ddd;stop-opacity:1"
         offset="0.47656199" />
      <stop
         id="stop9902"
         style="stop-color:#009ddd;stop-opacity:1"
         offset="0.47656199" />
      <stop
         id="stop9904"
         style="stop-color:#009cdd;stop-opacity:1"
         offset="0.49218801" />
      <stop
         id="stop9906"
         style="stop-color:#009cdd;stop-opacity:1"
         offset="0.49218801" />
      <stop
         id="stop9908"
         style="stop-color:#009bdd;stop-opacity:1"
         offset="0.50781202" />
      <stop
         id="stop9910"
         style="stop-color:#009bdd;stop-opacity:1"
         offset="0.50781202" />
      <stop
         id="stop9912"
         style="stop-color:#009adc;stop-opacity:1"
         offset="0.52343798" />
      <stop
         id="stop9914"
         style="stop-color:#009adc;stop-opacity:1"
         offset="0.52343798" />
      <stop
         id="stop9916"
         style="stop-color:#0099dc;stop-opacity:1"
         offset="0.546875" />
      <stop
         id="stop9918"
         style="stop-color:#0099dc;stop-opacity:1"
         offset="0.546875" />
      <stop
         id="stop9920"
         style="stop-color:#0099db;stop-opacity:1"
         offset="0.5625" />
      <stop
         id="stop9922"
         style="stop-color:#0098db;stop-opacity:1"
         offset="0.57031202" />
      <stop
         id="stop9924"
         style="stop-color:#0097da;stop-opacity:1"
         offset="0.58593798" />
      <stop
         id="stop9926"
         style="stop-color:#0097da;stop-opacity:1"
         offset="0.58593798" />
      <stop
         id="stop9928"
         style="stop-color:#0096da;stop-opacity:1"
         offset="0.60156202" />
      <stop
         id="stop9930"
         style="stop-color:#0096da;stop-opacity:1"
         offset="0.60156202" />
      <stop
         id="stop9932"
         style="stop-color:#0095da;stop-opacity:1"
         offset="0.61718798" />
      <stop
         id="stop9934"
         style="stop-color:#0095da;stop-opacity:1"
         offset="0.61718798" />
      <stop
         id="stop9936"
         style="stop-color:#0094d9;stop-opacity:1"
         offset="0.62109399" />
      <stop
         id="stop9938"
         style="stop-color:#0094d8;stop-opacity:1"
         offset="0.625" />
      <stop
         id="stop9940"
         style="stop-color:#0093d8;stop-opacity:1"
         offset="0.62890601" />
      <stop
         id="stop9942"
         style="stop-color:#0092d7;stop-opacity:1"
         offset="0.63671899" />
      <stop
         id="stop9944"
         style="stop-color:#0092d7;stop-opacity:1"
         offset="0.63671899" />
      <stop
         id="stop9946"
         style="stop-color:#0091d6;stop-opacity:1"
         offset="0.64843798" />
      <stop
         id="stop9948"
         style="stop-color:#0091d6;stop-opacity:1"
         offset="0.64843798" />
      <stop
         id="stop9950"
         style="stop-color:#0090d5;stop-opacity:1"
         offset="0.65234399" />
      <stop
         id="stop9952"
         style="stop-color:#008fd4;stop-opacity:1"
         offset="0.66015601" />
      <stop
         id="stop9954"
         style="stop-color:#008fd4;stop-opacity:1"
         offset="0.66015601" />
      <stop
         id="stop9956"
         style="stop-color:#008ed4;stop-opacity:1"
         offset="0.671875" />
      <stop
         id="stop9958"
         style="stop-color:#008ed4;stop-opacity:1"
         offset="0.671875" />
      <stop
         id="stop9960"
         style="stop-color:#008ed3;stop-opacity:1"
         offset="0.67968798" />
      <stop
         id="stop9962"
         style="stop-color:#008cd2;stop-opacity:1"
         offset="0.68359399" />
      <stop
         id="stop9964"
         style="stop-color:#008bd1;stop-opacity:1"
         offset="0.69531202" />
      <stop
         id="stop9966"
         style="stop-color:#008bd1;stop-opacity:1"
         offset="0.69531202" />
      <stop
         id="stop9968"
         style="stop-color:#0089d0;stop-opacity:1"
         offset="0.70703101" />
      <stop
         id="stop9970"
         style="stop-color:#0089d0;stop-opacity:1"
         offset="0.70703101" />
      <stop
         id="stop9972"
         style="stop-color:#0089cf;stop-opacity:1"
         offset="0.71093798" />
      <stop
         id="stop9974"
         style="stop-color:#0088cf;stop-opacity:1"
         offset="0.71875" />
      <stop
         id="stop9976"
         style="stop-color:#0088ce;stop-opacity:1"
         offset="0.72265601" />
      <stop
         id="stop9978"
         style="stop-color:#0087cd;stop-opacity:1"
         offset="0.72656202" />
      <stop
         id="stop9980"
         style="stop-color:#0086cd;stop-opacity:1"
         offset="0.73046899" />
      <stop
         id="stop9982"
         style="stop-color:#0085cc;stop-opacity:1"
         offset="0.73828101" />
      <stop
         id="stop9984"
         style="stop-color:#0085cc;stop-opacity:1"
         offset="0.73828101" />
      <stop
         id="stop9986"
         style="stop-color:#0085cb;stop-opacity:1"
         offset="0.75" />
      <stop
         id="stop9988"
         style="stop-color:#0085cb;stop-opacity:1"
         offset="0.75" />
      <stop
         id="stop9990"
         style="stop-color:#0084ca;stop-opacity:1"
         offset="0.75390601" />
      <stop
         id="stop9992"
         style="stop-color:#0083ca;stop-opacity:1"
         offset="0.75781202" />
      <stop
         id="stop9994"
         style="stop-color:#0082c9;stop-opacity:1"
         offset="0.76171899" />
      <stop
         id="stop9996"
         style="stop-color:#0081c9;stop-opacity:1"
         offset="0.77343798" />
      <stop
         id="stop9998"
         style="stop-color:#0081c9;stop-opacity:1"
         offset="0.77343798" />
      <stop
         id="stop10000"
         style="stop-color:#0080c8;stop-opacity:1"
         offset="0.77734399" />
      <stop
         id="stop10002"
         style="stop-color:#007fc7;stop-opacity:1"
         offset="0.78515601" />
      <stop
         id="stop10004"
         style="stop-color:#007fc7;stop-opacity:1"
         offset="0.78515601" />
      <stop
         id="stop10006"
         style="stop-color:#007ec6;stop-opacity:1"
         offset="0.796875" />
      <stop
         id="stop10008"
         style="stop-color:#007ec6;stop-opacity:1"
         offset="0.796875" />
      <stop
         id="stop10010"
         style="stop-color:#007dc5;stop-opacity:1"
         offset="0.80078101" />
      <stop
         id="stop10012"
         style="stop-color:#007cc4;stop-opacity:1"
         offset="0.80859399" />
      <stop
         id="stop10014"
         style="stop-color:#007cc4;stop-opacity:1"
         offset="0.80859399" />
      <stop
         id="stop10016"
         style="stop-color:#007bc4;stop-opacity:1"
         offset="0.82031202" />
      <stop
         id="stop10018"
         style="stop-color:#007bc4;stop-opacity:1"
         offset="0.82031202" />
      <stop
         id="stop10020"
         style="stop-color:#007bc3;stop-opacity:1"
         offset="0.828125" />
      <stop
         id="stop10022"
         style="stop-color:#0079c2;stop-opacity:1"
         offset="0.83203101" />
      <stop
         id="stop10024"
         style="stop-color:#0078c1;stop-opacity:1"
         offset="0.84375" />
      <stop
         id="stop10026"
         style="stop-color:#0078c1;stop-opacity:1"
         offset="0.84375" />
      <stop
         id="stop10028"
         style="stop-color:#0077c0;stop-opacity:1"
         offset="0.85546899" />
      <stop
         id="stop10030"
         style="stop-color:#0077c0;stop-opacity:1"
         offset="0.85546899" />
      <stop
         id="stop10032"
         style="stop-color:#0076bf;stop-opacity:1"
         offset="0.859375" />
      <stop
         id="stop10034"
         style="stop-color:#0075be;stop-opacity:1"
         offset="0.87109399" />
      <stop
         id="stop10036"
         style="stop-color:#0075be;stop-opacity:1"
         offset="0.87109399" />
      <stop
         id="stop10038"
         style="stop-color:#0074be;stop-opacity:1"
         offset="0.875" />
      <stop
         id="stop10040"
         style="stop-color:#0074bd;stop-opacity:1"
         offset="0.87890601" />
      <stop
         id="stop10042"
         style="stop-color:#0073bd;stop-opacity:1"
         offset="0.88281202" />
      <stop
         id="stop10044"
         style="stop-color:#0073bc;stop-opacity:1"
         offset="0.890625" />
      <stop
         id="stop10046"
         style="stop-color:#0072bc;stop-opacity:1"
         offset="0.89453101" />
      <stop
         id="stop10048"
         style="stop-color:#0071bb;stop-opacity:1"
         offset="0.89843702" />
      <stop
         id="stop10050"
         style="stop-color:#0070bb;stop-opacity:1"
         offset="0.90625" />
      <stop
         id="stop10052"
         style="stop-color:#0070bb;stop-opacity:1"
         offset="0.90625" />
      <stop
         id="stop10054"
         style="stop-color:#0070ba;stop-opacity:1"
         offset="0.91406202" />
      <stop
         id="stop10056"
         style="stop-color:#006fba;stop-opacity:1"
         offset="0.91796899" />
      <stop
         id="stop10058"
         style="stop-color:#006eb9;stop-opacity:1"
         offset="0.921875" />
      <stop
         id="stop10060"
         style="stop-color:#006db8;stop-opacity:1"
         offset="0.93359399" />
      <stop
         id="stop10062"
         style="stop-color:#006db8;stop-opacity:1"
         offset="0.93359399" />
      <stop
         id="stop10064"
         style="stop-color:#006cb7;stop-opacity:1"
         offset="0.94140601" />
      <stop
         id="stop10066"
         style="stop-color:#006cb7;stop-opacity:1"
         offset="0.94140601" />
      <stop
         id="stop10068"
         style="stop-color:#006bb7;stop-opacity:1"
         offset="0.94531202" />
      <stop
         id="stop10070"
         style="stop-color:#006ab6;stop-opacity:1"
         offset="0.95703101" />
      <stop
         id="stop10072"
         style="stop-color:#006ab6;stop-opacity:1"
         offset="0.95703101" />
      <stop
         id="stop10074"
         style="stop-color:#0069b5;stop-opacity:1"
         offset="0.96484399" />
      <stop
         id="stop10076"
         style="stop-color:#0069b5;stop-opacity:1"
         offset="0.96484399" />
      <stop
         id="stop10078"
         style="stop-color:#0068b5;stop-opacity:1"
         offset="0.96875" />
      <stop
         id="stop10080"
         style="stop-color:#0067b4;stop-opacity:1"
         offset="0.98046899" />
      <stop
         id="stop10082"
         style="stop-color:#0067b4;stop-opacity:1"
         offset="0.98046899" />
      <stop
         id="stop10084"
         style="stop-color:#0067b3;stop-opacity:1"
         offset="0.984375" />
      <stop
         id="stop10086"
         style="stop-color:#0066b3;stop-opacity:1"
         offset="1" />
    </linearGradient>
    <linearGradient
       inkscape:collect="always"
       xlink:href="#linearGradient6027"
       id="linearGradient6033"
       x1="357.14288"
       y1="707.24127"
       x2="361.42859"
       y2="343.42441"
       gradientUnits="userSpaceOnUse" />
  </defs>
  <sodipodi:namedview
     id="base"
     pagecolor="#ffffff"
     bordercolor="#666666"
     borderopacity="1.0"
     inkscape:pageopacity="0.0"
     inkscape:pageshadow="2"
     inkscape:zoom="0.7"
     inkscape:cx="377.50709"
     inkscape:cy="627.24357"
     inkscape:document-units="px"
     inkscape:current-layer="layer1"
     showgrid="false"
     inkscape:window-width="1366"
     inkscape:window-height="717"
     inkscape:window-x="0"
     inkscape:window-y="0"
     inkscape:window-maximized="1"
     showguides="true"
     inkscape:guide-bbox="true" />
  <metadata
     id="metadata7">
    <rdf:RDF>
      <cc:Work
         rdf:about="">
        <dc:format>image/svg+xml</dc:format>
        <dc:type
           rdf:resource="http://purl.org/dc/dcmitype/StillImage" />
        <dc:title></dc:title>
      </cc:Work>
    </rdf:RDF>
  </metadata>
  <g
     inkscape:label="Layer 1"
     inkscape:groupmode="layer"
     id="layer1">
    <rect
       style="fill:url(#linearGradient6033);fill-opacity:1;stroke:none"
       id="rect2985"
       width="400"
       height="400"
       x="160"
       y="252.3622"
       ry="25.477707" />
    <g
       id="g6022"
       transform="translate(620,128.57143)"
       style="fill:#cccccc">
      <path
         inkscape:connector-curvature="0"
         id="path5997"
         d="m -416.78125,273.45816 c -2.95369,-8.79374 -4.5625,-18.21117 -4.5625,-28 0,-48.53202 39.34298,-87.875 87.875,-87.875 34.62295,0 64.58515,20.02654 78.90625,49.125 -11.74533,-34.70749 -44.57689,-59.71875 -83.25,-59.71875 -48.53096,0 -87.875,39.34404 -87.875,87.875 0,13.84502 3.20233,26.94429 8.90625,38.59375 z"
         style="fill:#cccccc;fill-opacity:1;stroke:none" />
      <g
         style="fill:#cccccc;fill-opacity:1;stroke:none"
         transform="matrix(1.8561007,0,0,1.363243,-780.51363,-276.18872)"
         id="g12047">
        <path
           sodipodi:nodetypes="ccccccsccccccccccscccc"
           inkscape:connector-curvature="0"
           d="m 258.46875,368.4375 c 0.3225,8.28125 0.0238,37.30125 0,38.53125 l -0.15625,7.9375 -30.4375,-30.4375 0,-9.53125 24.21875,24.1875 c 0.0637,-4.785 0.125,-11.04125 0.125,-16.75 0,-5.56625 -0.0887,-10.59375 -0.25,-13.25 -0.9075,-15.23 -6.71075,-22.86393 -9.83137,-26.16143 l 4.26639,0.33979 c 10.38819,4.00114 11.52248,11.15935 12.06498,25.13435 z m -42.40625,24.40666 c -0.3225,-8.28125 -0.025,-37.30125 0,-38.53125 l 0.15625,-7.90625 30.4375,30.4375 0,9.53125 -24.21875,-24.21875 c -0.0625,4.78625 -0.125,11.0425 -0.125,16.75 0,5.56125 0.0888,10.5975 0.25,13.25 0.90875,15.23375 2.33125,22.39 7.86718,25.4375 -13.02843,-3.24375 -13.82593,-10.77125 -14.36718,-24.75 z"
           id="path10088"
           style="fill:#cccccc;fill-opacity:1;stroke:none" />
      </g>
    </g>
    <g
       id="g5262"
       style="fill:#ececec;fill-opacity:1;stroke:none"
       transform="translate(456.77103,9.564212)">
      <path
         style="fill:#ececec;fill-opacity:1;stroke:none"
         d="m -222.30709,546.03257 c 3.9451,-24.6711 6.09942,-26.74377 40.3745,-38.84391 17.38073,-6.13589 32.89107,-14.9553 38.22348,-21.73434 8.9738,-11.40836 8.9738,-11.40836 27.88668,7.15323 18.912874,18.5616 18.912874,18.5616 37.540519,-0.066 18.627644,-18.62764 18.627644,-18.62764 27.653402,-7.15323 5.424894,6.89661 20.884652,15.66093 38.750497,21.96809 24.953613,8.80938 30.69017,12.80427 35.739223,24.88837 3.307963,7.91704 6.014483,18.47018 6.014483,23.45136 0,8.89353 -2.298991,8.34244 -127.58814,8.34244 -127.588144,0 -127.588144,0.71429 -124.594644,-18.00596 z m 107.33711,-70.17203 c -12.01337,-4.91695 -21.25671,-16.27357 -33.28416,-40.89368 -9.31153,-19.06075 -10.43321,-26.0107 -6.1842,-57.80882 5.09911,-38.15958 12.2662,-45.56522 36.10758,-53.43359 11.95801,-3.94649 19.924258,-3.88485 34.001208,0.26339 36.242126,10.67936 40.388011,16.67152 45.066081,65.13586 2.369096,24.54394 1.631408,33.03127 -3.299585,37.96231 -3.493009,3.49301 -8.332014,12.33176 -10.753388,19.6417 -4.967582,14.99687 -29.226248,33.49032 -43.371252,33.06381 -5.152804,-0.15554 -13.379824,-1.92418 -18.282284,-3.93076 z"
         id="path4462"
         inkscape:connector-curvature="0"
         sodipodi:nodetypes="cssssssssscccssscsssccc" />
      <path
         style="fill:#ececec;fill-opacity:1;stroke:none"
         d="m -224.16134,556.50429 c 0,-4.53666 2.16127,-14.44829 4.80281,-22.02586 4.0424,-11.59608 9.86373,-15.74713 36.76852,-26.21894 17.58115,-6.84287 35.74292,-17.1418 40.35953,-22.88651 8.39388,-10.44498 8.39388,-10.44498 26.93038,7.74724 18.536549,18.19221 18.536549,18.19221 36.174073,0.10518 17.637524,-18.08704 17.637524,-18.08704 26.551104,-7.81592 4.902469,5.64912 23.298138,15.90071 40.879283,22.78133 26.874044,10.51753 32.730756,14.70478 36.768519,26.28757 11.245239,32.25812 19.253333,30.2744 -122.215703,30.2744 -120.633586,0 -127.018516,-0.41448 -127.018516,-8.24854 z M -122.1103,469.8917 c -8.32898,-5.60014 -17.15209,-16.32594 -19.6068,-23.83505 -2.45475,-7.50911 -7.22481,-16.98051 -10.60016,-21.04755 -8.36807,-10.08286 -0.39666,-75.39405 10.69821,-87.65387 13.32166,-14.72025 33.37285,-18.65862 60.443434,-11.87196 19.79158,4.96179 25.458522,8.61591 31.43646,20.27055 10.887759,21.22689 15.238968,70.63937 7.049661,80.0563 -3.571672,4.10707 -8.41442,13.48406 -10.761633,20.83777 -4.80442,15.05169 -28.821705,33.42592 -43.691696,33.42592 -5.403096,0 -16.638446,-4.58193 -24.967476,-10.18211 z"
         id="path4460"
         inkscape:connector-curvature="0" />
      <path
         style="fill:#ececec;fill-opacity:1;stroke:none"
         d="m -224.16134,556.50429 c 0,-4.53666 2.16136,-14.44865 4.80308,-22.02662 4.05795,-11.64064 9.76206,-15.67306 36.76847,-25.9928 17.58097,-6.71803 35.74266,-17.01665 40.35927,-22.88575 8.39392,-10.67112 8.39392,-10.67112 26.93042,7.5211 18.536549,18.19221 18.536549,18.19221 36.174073,0.10518 17.637524,-18.08704 17.637524,-18.08704 27.053785,-7.16812 5.178969,6.00539 21.623856,15.36999 36.544209,20.81022 31.80089,11.59519 40.380211,19.74206 43.948986,41.73374 2.621038,16.15154 2.621038,16.15154 -124.98065,16.15154 -121.201073,0 -127.601643,-0.41359 -127.601643,-8.24854 z M -122.1103,469.8917 c -8.32898,-5.60014 -17.15209,-16.32594 -19.6068,-23.83505 -2.45475,-7.50911 -7.20025,-16.95087 -10.54552,-20.98172 -4.44801,-5.35952 -5.27711,-14.22376 -3.08562,-32.98903 6.22409,-53.29501 16.87506,-68.01962 49.16932,-67.97487 32.126458,0.0446 51.434476,7.9313 57.97437,23.68106 8.330008,20.06086 13.391852,72.48029 7.359052,76.2088 -2.634765,1.62833 -8.682897,11.76017 -13.440342,22.51516 -8.71249,19.69603 -26.972271,33.55776 -44.204985,33.55776 -4.661665,0 -15.290445,-4.58193 -23.619475,-10.18211 z"
         id="path4458"
         inkscape:connector-curvature="0" />
      <path
         style="fill:#ececec;fill-opacity:1;stroke:none"
         d="m -224.13647,559.18184 c 0.0134,-3.06405 2.07049,-12.93606 4.5707,-21.93784 4.19892,-15.11783 7.00305,-17.28379 36.74365,-28.38195 17.70879,-6.60826 34.94939,-15.78903 38.3124,-20.40163 8.66587,-11.88586 14.55948,-10.54267 31.80285,7.24799 15.153665,15.6346 15.153665,15.6346 33.867637,-2.73179 18.713973,-18.36639 18.713973,-18.36639 25.795991,-7.55782 4.433971,6.76705 17.791194,14.58921 35.72242,20.91946 33.235398,11.73307 40.829011,18.75649 45.087028,41.7016 3.10148,16.71296 3.10148,16.71296 -124.413034,16.71296 -99.053672,0 -127.508942,-1.24344 -127.489642,-5.57098 z m 109.16475,-85.28474 c -15.57742,-6.78898 -22.14544,-14.03465 -26.72069,-29.47761 -1.81556,-6.12809 -6.28198,-14.54014 -9.9254,-18.69343 -5.17269,-5.89655 -5.92602,-13.71015 -3.43739,-35.65432 6.35021,-55.99555 20.7542,-69.70629 67.142032,-63.91054 32.740783,4.0907 39.815715,11.89463 46.451875,51.23846 5.348639,31.71038 5.272472,32.25179 -8.467411,60.16137 -10.366761,21.05793 -17.67915,29.97316 -28.984511,35.33793 -17.899361,8.49379 -18.802217,8.51875 -36.058505,0.99814 z"
         id="path4456"
         inkscape:connector-curvature="0" />
      <path
         style="fill:#ececec;fill-opacity:1;stroke:none"
         d="m -222.05185,548.03986 c 4.28877,-23.11082 12.30867,-30.45057 45.2505,-41.41289 16.35967,-5.44415 30.44259,-13.11843 33.06488,-18.01818 6.57372,-12.28318 13.85634,-10.61871 31.02015,7.0899 15.144218,15.62484 15.144218,15.62484 31.145521,0 18.155358,-17.72822 24.529236,-19.22111 30.938012,-7.2462 2.466253,4.60827 17.614972,13.01427 33.66374,18.67997 33.832741,11.94397 40.490071,18.03168 44.735253,40.9074 3.10148,16.71296 3.10148,16.71296 -124.90903,16.71296 -128.010506,0 -128.010506,0 -124.909026,-16.71296 z m 105.76738,-75.30045 c -21.96092,-10.98176 -42.6985,-54.65549 -38.84177,-81.8014 9.15313,-64.42468 21.62804,-73.38386 84.724157,-60.84695 4.902469,0.97412 10.199988,2.02704 11.772254,2.3399 5.060552,1.00688 16.047475,33.32939 19.181579,56.43054 2.601206,19.17356 1.316982,25.76426 -8.83211,45.32618 -20.845388,40.17859 -41.422744,51.84397 -68.00411,38.55173 z"
         id="path4454"
         inkscape:connector-curvature="0" />
      <path
         style="fill:#ececec;fill-opacity:1;stroke:none"
         d="m -222.1159,548.03986 c 3.93312,-21.64146 11.92321,-28.78837 46.03258,-41.17486 15.41238,-5.59688 30.02321,-13.9145 32.46857,-18.48364 6.36946,-11.90155 12.77026,-10.38579 30.8999,7.31733 16.001304,15.62484 16.001304,15.62484 31.145477,0 17.146608,-17.69078 24.44692,-19.37219 30.994123,-7.13861 2.538944,4.74398 17.592956,13.09672 34.137764,18.94135 30.96756,10.9396 38.991565,18.73844 44.001398,42.76683 3.02001,14.48456 3.02001,14.48456 -124.84864,14.48456 -127.868602,0 -127.868602,0 -124.831172,-16.71296 z m 106.03858,-75.33963 c -21.6325,-10.61398 -43.23857,-56.25182 -39.07816,-82.54358 9.94809,-62.86668 25.00148,-73.81465 82.525002,-60.01848 16.987634,4.07426 25.401564,17.72483 31.31256,50.80094 5.286867,29.58333 5.147682,30.56569 -7.70169,54.35283 -20.162162,37.3249 -42.186593,49.61125 -67.057712,37.40829 z"
         id="path4452"
         inkscape:connector-curvature="0" />
      <path
         style="fill:#ececec;fill-opacity:1;stroke:none"
         d="m -221.84956,550.26826 c 5.00983,-24.02839 13.03384,-31.82723 44.0014,-42.76683 16.54481,-5.84463 31.59882,-14.19737 34.13776,-18.94135 6.29504,-11.76245 10.58426,-10.77354 30.22185,6.96787 17.105921,15.45415 17.105921,15.45415 32.084657,0 16.985095,-17.52418 24.294899,-19.17632 30.828643,-6.96787 2.538944,4.74398 17.592956,13.09672 34.137764,18.94135 30.96756,10.9396 38.991565,18.73844 44.001398,42.76683 3.02001,14.48456 3.02001,14.48456 -124.706736,14.48456 -127.726746,0 -127.726746,0 -124.706736,-14.48456 z m 111.14205,-76.65742 c -15.80057,-6.64365 -20.75545,-12.26517 -35.96269,-40.80111 -11.21769,-21.04973 -11.43625,-22.88285 -6.2211,-52.17974 7.22205,-40.57087 18.75418,-54.22844 45.22051,-53.55497 48.712986,1.23956 58.066986,8.7907 66.012641,53.28952 4.888252,27.37597 1.85398,46.39746 -8.413484,52.74308 -2.602409,1.60837 -4.731685,6.46747 -4.731685,10.798 0,9.47893 -15.783098,25.04266 -31.390109,30.95384 -7.845688,2.97152 -15.391303,2.58721 -24.514083,-1.24862 z"
         id="path4450"
         inkscape:connector-curvature="0" />
      <path
         style="fill:#ececec;fill-opacity:1;stroke:none"
         d="m -221.84956,550.26826 c 4.95595,-23.76998 12.90896,-31.84987 40.52296,-41.16951 14.43501,-4.87177 30.79843,-13.73186 36.36313,-19.68912 10.11763,-10.83129 10.11763,-10.83129 22.28395,0.16713 25.429644,22.98852 24.747354,22.90438 45.018083,5.55334 18.715042,-16.01936 18.715042,-16.01936 28.585941,-5.45422 5.429039,5.81085 21.681437,14.55115 36.116445,19.42291 27.614005,9.31964 35.567013,17.39953 40.522963,41.16951 3.02001,14.48457 3.02001,14.48457 -124.706736,14.48457 -127.726746,0 -127.726746,0 -124.706736,-14.48457 z m 111.14205,-76.65742 c -15.80057,-6.64365 -20.75545,-12.26517 -35.96269,-40.80111 -11.21769,-21.04973 -11.43625,-22.88285 -6.2211,-52.17974 7.22205,-40.57087 18.75418,-54.22844 45.22051,-53.55497 26.420568,0.6723 47.118659,5.68303 53.063348,12.84589 7.057639,8.50396 18.118768,64.74415 14.793914,75.2197 -1.537459,4.84417 -5.539122,11.55133 -8.892589,14.9048 -3.353467,3.35346 -6.097201,9.61543 -6.097201,13.91552 0,9.43061 -15.817505,25.00041 -31.390109,30.89853 -7.845688,2.97152 -15.391303,2.58721 -24.514083,-1.24862 z"
         id="path4448"
         inkscape:connector-curvature="0" />
      <path
         style="fill:#ececec;fill-opacity:1;stroke:none"
         d="m -221.75976,550.26826 c 5.23089,-24.36403 10.01147,-29.25584 38.85934,-39.76335 15.30065,-5.57304 32.38736,-15.05272 37.97051,-21.06591 10.15123,-10.93313 10.15123,-10.93313 26.92868,5.44963 9.22757,9.01047 18.613877,16.38271 20.858406,16.38271 2.244529,0 11.630841,-7.37224 20.858402,-16.38271 16.777452,-16.38276 16.777452,-16.38276 26.928683,-5.44963 5.583155,6.01319 22.669864,15.49287 37.970515,21.06591 28.847866,10.50751 33.628442,15.39932 38.859332,39.76335 3.109814,14.48456 3.109814,14.48456 -124.616932,14.48456 -127.726746,0 -127.726746,0 -124.616936,-14.48456 z m 113.56659,-75.4548 c -16.07381,-5.99665 -25.50621,-15.82071 -35.09646,-36.55392 -13.87087,-29.98747 -14.45542,-34.01712 -8.97553,-61.87103 7.19041,-36.54804 19.31591,-49.95674 44.59437,-49.31349 30.673014,0.78051 48.386036,6.20073 55.438639,16.96437 8.073876,12.32222 14.325594,82.55294 7.348623,82.55294 -2.62447,0 -7.008303,6.77695 -9.741919,15.05985 -8.457428,25.62623 -33.015188,40.82879 -53.567723,33.16128 z"
         id="path4446"
         inkscape:connector-curvature="0" />
      <path
         style="fill:#ececec;fill-opacity:1;stroke:none"
         d="m -221.75976,550.26826 c 5.13744,-23.92869 9.82326,-29.01433 35.63012,-38.66988 13.58377,-5.08234 26.48247,-9.24062 28.66385,-9.24062 2.18138,0 8.18356,-5.36161 13.33819,-11.91465 9.37205,-11.91465 9.37205,-11.91465 26.13792,4.45679 9.22123,9.00428 18.602327,16.37144 20.846856,16.37144 2.244529,0 11.743419,-7.48219 21.10865,-16.62708 17.027702,-16.62712 17.027702,-16.62712 26.928684,-4.89115 5.566575,6.59828 20.378717,15.08744 33.835416,19.39181 26.502302,8.47721 40.688978,19.96891 40.688978,32.95943 0,4.70201 1.217327,11.72145 2.705227,15.59877 2.428059,6.32744 -10.393279,7.0497 -125.144259,7.0497 -127.849442,0 -127.849442,0 -124.739632,-14.48456 z m 111.05399,-76.7314 c -15.7072,-6.69343 -26.49036,-18.3425 -31.07849,-33.57416 -1.84596,-6.12809 -5.47668,-12.50121 -8.06835,-14.16243 -6.11253,-3.91814 -5.44633,-40.68639 1.18038,-65.14887 6.28389,-23.19697 26.36267,-38.07493 47.07262,-34.87986 33.680494,5.19617 44.668442,10.01227 50.5014,22.13509 7.766135,16.14062 12.69227,78.6857 6.197389,78.6857 -2.614932,0 -6.99101,6.77695 -9.724626,15.05985 -9.015195,27.31629 -33.771238,41.39141 -56.080323,31.88468 z"
         id="path4444"
         inkscape:connector-curvature="0" />
      <path
         style="fill:#ececec;fill-opacity:1;stroke:none"
         d="m -221.75976,550.26826 c 5.13744,-23.92869 9.82326,-29.01433 35.63012,-38.66988 13.58377,-5.08234 26.48247,-9.24062 28.66385,-9.24062 2.18138,0 8.18356,-5.36161 13.33819,-11.91465 9.37205,-11.91465 9.37205,-11.91465 26.13792,4.45679 9.22123,9.00428 18.602327,16.37144 20.846856,16.37144 2.244529,0 11.625626,-7.36716 20.846859,-16.37144 16.765865,-16.37144 16.765865,-16.37144 26.137915,-4.45679 5.154634,6.55304 11.156816,11.91465 13.338192,11.91465 2.181376,0 15.080084,4.15828 28.6638456,9.24062 25.8584744,9.67489 30.5502714,14.84918 35.0641524,38.66988 2.744714,14.48456 2.744714,14.48456 -124.51652,14.48456 -127.26119,0 -127.26119,0 -124.15138,-14.48456 z m 96.31739,-85.91368 c -7.36155,-6.19436 -14.69422,-17.22491 -16.29483,-24.51235 -1.60057,-7.28747 -4.52257,-13.2499 -6.49327,-13.2499 -11.35827,0 -6.0008,-63.399 7.076,-83.7352 6.12577,-9.52647 9.10905,-10.11357 45.293062,-8.91358 37.522296,1.24434 38.922708,1.6762 44.716045,13.78971 7.804954,16.31961 12.757205,78.85907 6.244542,78.85907 -2.614932,0 -7.060714,6.98807 -9.8795,15.52906 -10.774112,32.6459 -45.355999,43.5268 -70.662049,22.23319 z"
         id="path4442"
         inkscape:connector-curvature="0" />
      <path
         style="fill:#ececec;fill-opacity:1;stroke:none"
         d="m -221.19379,550.26826 c 4.51388,-23.8207 9.20568,-28.99499 35.06415,-38.66988 13.58377,-5.08234 26.48247,-9.24062 28.66385,-9.24062 2.18138,0 8.18356,-5.36161 13.33819,-11.91465 9.37205,-11.91465 9.37205,-11.91465 26.13792,4.45679 9.22123,9.00428 18.602327,16.37144 20.846856,16.37144 2.244529,0 11.625626,-7.36716 20.846859,-16.37144 16.765865,-16.37144 16.765865,-16.37144 26.137915,-4.45679 5.154634,6.55304 11.156816,11.91465 13.338192,11.91465 2.181376,0 15.080084,4.15828 28.6638456,9.24062 25.8584744,9.67489 30.5502714,14.84918 35.0641524,38.66988 2.744714,14.48456 2.744714,14.48456 -124.050964,14.48456 -126.795676,0 -126.795676,0 -124.050966,-14.48456 z m 95.4238,-86.18938 c -7.54178,-6.34602 -13.71234,-15.22773 -13.71234,-19.73725 0,-4.50947 -2.64568,-10.84925 -5.87935,-14.08836 -9.64093,-9.65733 -11.61694,-25.29455 -6.7138,-53.13015 4.63199,-26.29622 4.63199,-26.29622 52.917429,-26.29622 28.422199,0 49.456376,1.89458 51.131817,4.60551 5.410766,8.75479 8.151648,71.15992 3.125413,71.15992 -2.614932,0 -7.060714,6.98807 -9.8795,15.52906 -10.84288,32.85426 -45.353769,43.52867 -70.989669,21.95749 z"
         id="path4440"
         inkscape:connector-curvature="0" />
      <path
         style="fill:#ececec;fill-opacity:1;stroke:none"
         d="m -221.19379,550.26826 c 4.51388,-23.8207 9.20568,-28.99499 35.06415,-38.66988 13.58377,-5.08234 26.48247,-9.24062 28.66385,-9.24062 2.18138,0 8.18356,-5.36161 13.33819,-11.91465 9.37205,-11.91465 9.37205,-11.91465 26.13792,4.45679 9.22123,9.00428 18.602327,16.37144 20.846856,16.37144 2.244529,0 11.625626,-7.36716 20.846859,-16.37144 16.765865,-16.37144 16.765865,-16.37144 26.137915,-4.45679 5.154634,6.55304 11.156816,11.91465 13.338192,11.91465 2.181376,0 15.080084,4.15828 28.6638456,9.24062 25.8584744,9.67489 30.5502714,14.84918 35.0641524,38.66988 2.744714,14.48456 2.744714,14.48456 -124.050964,14.48456 -126.795676,0 -126.795676,0 -124.050966,-14.48456 z m 95.4238,-86.18938 c -7.54178,-6.34602 -13.71234,-15.22773 -13.71234,-19.73725 0,-4.50947 -2.97705,-11.17607 -6.61561,-14.81464 -6.75672,-6.75671 -9.0197,-20.62437 -7.56986,-46.38836 0.8151,-14.48457 0.8151,-14.48457 53.819749,-14.48457 59.325224,0 58.415103,-0.51797 58.415103,33.24471 0,11.58102 -2.641316,21.33746 -6.685185,24.69356 -3.676852,3.05152 -6.685185,9.46805 -6.685185,14.25892 0,4.79087 -5.862373,14.57308 -13.027554,21.73822 -17.075434,17.07548 -38.753888,17.63275 -57.939118,1.48941 z"
         id="path4438"
         inkscape:connector-curvature="0" />
      <path
         style="fill:#ececec;fill-opacity:1;stroke:none"
         d="m -221.19379,550.26826 c 4.51388,-23.8207 9.20568,-28.99499 35.06415,-38.66988 13.58377,-5.08234 26.48247,-9.24062 28.66385,-9.24062 2.18138,0 8.18356,-5.36161 13.33819,-11.91465 9.37205,-11.91465 9.37205,-11.91465 26.13792,4.45679 9.22123,9.00428 18.602327,16.37144 20.846856,16.37144 2.244529,0 11.625626,-7.36716 20.846859,-16.37144 16.765865,-16.37144 16.765865,-16.37144 26.137915,-4.45679 5.154634,6.55304 11.156816,11.91465 13.338192,11.91465 2.181376,0 15.193643,4.20075 28.9161891,9.33502 25.0061579,9.356 28.3040039,13.20252 34.9833069,40.80387 2.96586,12.25617 2.96586,12.25617 -124.02614,12.25617 -126.991998,0 -126.991998,0 -124.247288,-14.48456 z m 95.4238,-86.18938 c -7.54178,-6.34602 -13.71234,-15.22773 -13.71234,-19.73725 0,-4.50947 -2.67006,-10.86908 -5.93346,-14.13248 -7.64491,-7.64491 -12.65291,-27.65002 -9.18451,-36.68861 2.26044,-5.89058 11.71459,-7.03932 57.934308,-7.03932 55.233044,0 55.233044,0 55.233044,17.28143 0,9.92424 -2.846106,19.64352 -6.685185,22.82968 -3.676852,3.05152 -6.685185,9.46805 -6.685185,14.25892 0,4.79087 -5.862373,14.57308 -13.027554,21.73822 -17.075434,17.07548 -38.753888,17.63275 -57.939118,1.48941 z"
         id="path4436"
         inkscape:connector-curvature="0" />
      <path
         style="fill:#ececec;fill-opacity:1;stroke:none"
         d="m -221.19379,550.26826 c 4.55047,-24.01404 8.88417,-28.44551 38.09023,-38.95017 15.41233,-5.54344 32.67295,-15.11342 38.35691,-21.26668 10.33445,-11.18771 10.33445,-11.18771 26.92864,5.01611 9.12684,8.91211 18.430657,16.20382 20.675186,16.20382 2.244529,0 11.548345,-7.29171 20.675183,-16.20382 16.594189,-16.20382 16.594189,-16.20382 26.928639,-5.01611 5.683967,6.15326 23.03541,15.75725 38.558811,21.34218 28.4911,10.2504 31.337607,13.32451 38.059829,41.10306 2.96586,12.25617 2.96586,12.25617 -124.02614,12.25617 -126.991998,0 -126.991998,0 -124.247288,-14.48456 z m 95.4238,-86.18938 c -7.54178,-6.34602 -13.71234,-14.92476 -13.71234,-19.06392 0,-4.13915 -2.73816,-11.48167 -6.08486,-16.31675 -3.34669,-4.83508 -7.49293,-13.30356 -9.21392,-18.81884 -3.12902,-10.02778 -3.12902,-10.02778 55.109548,-10.02778 58.238614,0 58.238614,0 58.238614,10.59624 0,5.82797 -3.008333,13.09298 -6.685185,16.1445 -3.676852,3.05152 -6.685185,9.46805 -6.685185,14.25892 0,4.79087 -5.862373,14.57308 -13.027554,21.73822 -17.075434,17.07548 -38.753888,17.63275 -57.939118,1.48941 z"
         id="path4434"
         inkscape:connector-curvature="0" />
      <path
         style="fill:#ececec;fill-opacity:1;stroke:none"
         d="m -221.36529,552.49665 c 6.72223,-27.77855 9.56873,-30.85266 38.05983,-41.10306 15.5234,-5.58493 32.87485,-15.18892 38.55881,-21.34218 10.33445,-11.18771 10.33445,-11.18771 26.92864,5.01611 9.12684,8.91211 18.430657,16.20382 20.675186,16.20382 2.244529,0 11.548345,-7.29171 20.675183,-16.20382 16.594189,-16.20382 16.594189,-16.20382 26.928639,-5.01611 5.683967,6.15326 23.03541,15.75725 38.558811,21.34218 28.4911,10.2504 31.337607,13.32451 38.059829,41.10306 2.96586,12.25617 2.96586,12.25617 -124.222462,12.25617 -127.188326,0 -127.188326,0 -124.222466,-12.25617 z m 100.78042,-83.76247 c -5.40462,-3.78551 -14.58315,-16.82162 -20.39672,-28.96914 -10.57013,-22.08629 -10.57013,-22.08629 45.179993,-22.08629 53.72754,0 55.482535,0.29549 48.374222,8.15031 -4.056793,4.48269 -7.375943,11.65638 -7.375943,15.94158 0,4.28521 -5.862373,13.65369 -13.027554,20.81883 -14.879172,14.87921 -36.661468,17.41638 -52.753998,6.14471 z"
         id="path4432"
         inkscape:connector-curvature="0" />
      <path
         style="fill:#ececec;fill-opacity:1;stroke:none"
         d="m -221.36529,552.49665 c 6.72223,-27.77855 9.56873,-30.85266 38.05983,-41.10306 15.5234,-5.58493 32.87485,-15.18892 38.55881,-21.34218 10.33445,-11.18771 10.33445,-11.18771 26.92864,5.01611 9.12684,8.91211 18.623191,16.20382 21.103038,16.20382 2.479847,0 11.312314,-7.01944 19.627704,-15.59876 17.314406,-17.86398 20.649601,-18.85566 24.337372,-7.23645 1.734003,5.46331 14.312134,12.61428 36.282327,20.62723 34.235011,12.48619 36.638291,14.88323 43.547207,43.43329 2.96586,12.25617 2.96586,12.25617 -124.222462,12.25617 -127.188326,0 -127.188326,0 -124.222466,-12.25617 z m 95.72468,-89.80971 c -24.41015,-22.8025 -19.81948,-27.18103 28.497786,-27.18103 35.826665,0 42.339506,1.09606 42.339506,7.12547 0,12.56565 -26.210605,32.98564 -42.339506,32.98564 -10.021806,0 -19.032896,-4.08852 -28.497786,-12.93008 z"
         id="path4430"
         inkscape:connector-curvature="0" />
      <path
         style="fill:#ececec;fill-opacity:1;stroke:none"
         d="m -221.36529,552.49665 c 6.81564,-28.16459 9.46159,-30.94051 39.65095,-41.59825 17.19782,-6.07135 33.39527,-15.12666 38.37007,-21.45111 8.60896,-10.94454 8.60896,-10.94454 27.59484,7.68872 18.985879,18.63321 18.985879,18.63321 36.413711,0.78551 19.74621,-20.22193 22.835122,-21.30288 26.637833,-9.3216 1.793858,5.65197 13.960182,12.63072 36.091398,20.70241 18.3619311,6.69695 34.243079,13.56415 35.291449,15.2605 1.048371,1.69625 3.781943,11.43296 6.074694,21.63709 4.16857,18.5529 4.16857,18.5529 -122.461138,18.5529 -126.629667,0 -126.629667,0 -123.663807,-12.25617 z m 95.72468,-89.80971 c -7.61295,-7.11152 -13.84172,-14.13097 -13.84172,-15.59877 0,-1.46775 19.12333,-2.66868 42.496296,-2.66868 41.0416,0 42.33389,0.30351 37.750617,8.86745 -5.859966,10.94949 -27.098042,22.33008 -41.671563,22.33008 -5.99055,0 -17.12072,-5.81852 -24.73363,-12.93008 z"
         id="path4428"
         inkscape:connector-curvature="0" />
      <path
         style="fill:#ececec;fill-opacity:1;stroke:none"
         d="m -221.36529,552.49665 c 6.69905,-27.68286 9.53749,-30.74071 38.03759,-40.978 15.53566,-5.58039 33.36229,-14.93078 39.61481,-20.77863 11.3682,-10.63238 11.3682,-10.63238 28.7795,7.19843 17.411293,17.83077 17.411293,17.83077 36.007339,-0.41983 18.295079,-17.95529 18.700736,-18.10125 25.062893,-9.01795 3.556741,5.07797 20.34333,14.42992 37.303467,20.78205 16.96013622,6.35218 32.225757,12.90794 33.923615,14.5684 1.697859,1.66042 4.994368,11.5426 7.325626,21.96035 4.238675,18.94135 4.238675,18.94135 -122.391033,18.94135 -126.629667,0 -126.629667,0 -123.663807,-12.25617 z m 97.48173,-87.88344 c -13.37037,-10.95956 -13.37037,-10.95956 25.626539,-11.11987 21.448302,-0.0883 38.996913,0.87197 38.996913,2.13364 0,5.15789 -29.751614,19.95635 -40.111111,19.95122 -6.128091,-0.003 -17.158641,-4.93727 -24.512341,-10.96499 z"
         id="path4426"
         inkscape:connector-curvature="0" />
      <path
         style="fill:#ececec;fill-opacity:1;stroke:none"
         d="m -221.36529,552.49665 c 6.81323,-28.15475 9.2991,-30.65269 42.58606,-42.79312 19.13099,-6.97746 35.23734,-15.87192 38.65699,-21.34766 5.75292,-9.21192 6.2113,-9.04404 24.6104,9.01332 18.748289,18.40003 18.748289,18.40003 36.385813,0.33337 17.526015,-17.95262 17.684677,-18.00864 25.094447,-8.86331 4.101316,5.06193 21.148538,14.33116 37.882716,20.59826 16.73417687,6.26709 31.81493,12.75328 33.512788,14.41375 1.697859,1.66042 4.994368,11.54259 7.325626,21.96034 4.238675,18.94136 4.238675,18.94136 -122.391033,18.94136 -126.629667,0 -126.629667,0 -123.663807,-12.25618 z"
         id="path4424"
         inkscape:connector-curvature="0" />
      <path
         style="fill:#ececec;fill-opacity:1;stroke:none"
         d="m -221.36529,552.49665 c 6.91351,-28.56909 9.43244,-31.20502 39.3265,-41.15311 16.12658,-5.36655 32.15578,-12.59212 35.6204,-16.05679 9.86315,-9.86314 21.97554,-7.46842 35.93804,7.10529 12.842466,13.40464 12.842466,13.40464 26.672554,0 15.114535,-14.64961 26.203876,-16.8419 35.940536,-7.10529 3.464619,3.46467 19.344029,10.64037 35.287571,15.94604 15.9434985,5.30563 29.929262,11.16934 31.079471,13.03041 1.150208,1.86106 3.967122,11.73259 6.259873,21.93672 4.16857,18.5529 4.16857,18.5529 -122.461138,18.5529 -126.629667,0 -126.629667,0 -123.663807,-12.25617 z"
         id="path4422"
         inkscape:connector-curvature="0" />
      <path
         style="fill:#ececec;fill-opacity:1;stroke:none"
         d="m -221.58006,552.49665 c 4.24434,-18.90824 16.45019,-33.36277 33.31896,-39.45721 19.32465,-6.98169 82.81626,-7.98978 86.90148,-1.37978 2.156288,3.489 4.350634,3.489 7.839587,0 6.405967,-6.40596 62.097704,-6.20951 83.8099379,0.29549 21.0608291,6.30997 30.3711081,16.10296 35.0555061,36.87294 3.591594,15.9246 3.591594,15.9246 -123.042481,15.9246 -126.63408,0 -126.63408,0 -123.88299,-12.25617 z"
         id="path4420"
         inkscape:connector-curvature="0" />
      <path
         style="fill:#ececec;fill-opacity:1;stroke:none"
         d="m -221.48762,552.49665 c 4.2983,-18.52665 14.32011,-32.2155 27.15923,-37.09694 6.64351,-2.52584 50.93331,-3.85967 104.385733,-3.14368 87.4856312,1.17191 93.3857528,1.78383 102.193039,10.59869 5.140818,5.14523 10.998377,16.67722 13.016768,25.62654 3.669855,16.27156 3.669855,16.27156 -122.96422,16.27156 -126.63408,0 -126.63408,0 -123.79055,-12.25617 z"
         id="path4418"
         inkscape:connector-curvature="0" />
      <path
         style="fill:#ececec;fill-opacity:1;stroke:none"
         d="m -221.40134,552.49665 c 7.05318,-29.50524 -0.30217,-27.85494 124.152311,-27.85494 78.642022,0 114.168923,1.52191 116.307648,4.98247 1.693625,2.74035 4.609078,11.76535 6.478835,20.05556 3.399551,15.07308 3.399551,15.07308 -123.234524,15.07308 -126.63408,0 -126.63408,0 -123.70427,-12.25617 z"
         id="path4416"
         inkscape:connector-curvature="0" />
      <path
         style="fill:#ececec;fill-opacity:1;stroke:none"
         d="m -220.65523,551.38245 c 1.96237,-13.37037 1.96237,-13.37037 123.512406,-13.37037 121.550036,0 121.550036,0 123.512406,13.37037 1.962324,13.37037 1.962324,13.37037 -123.512406,13.37037 -125.474726,0 -125.474726,0 -123.512406,-13.37037 z"
         id="path4414"
         inkscape:connector-curvature="0" />
      <path
         style="fill:#ececec;fill-opacity:1;stroke:none"
         d="m -220.79535,553.61085 c 2.1299,-11.14198 2.1299,-11.14198 123.652526,-11.14198 121.522627,0 121.522627,0 123.652527,11.14198 2.129945,11.14197 2.129945,11.14197 -123.652527,11.14197 -125.782476,0 -125.782476,0 -123.652526,-11.14197 z"
         id="path4412"
         inkscape:connector-curvature="0" />
      <path
         style="fill:#ececec;fill-opacity:1;stroke:none"
         d="m -221.93295,560.29603 c 1.72781,-2.79561 48.24048,-4.45679 124.790126,-4.45679 76.549649,0 123.062315,1.66118 124.790123,4.45679 1.811774,2.93155 -40.895328,4.45679 -124.790123,4.45679 -83.894796,0 -126.601896,-1.52524 -124.790126,-4.45679 z"
         id="path4410"
         inkscape:connector-curvature="0" />
    </g>
  </g>
</svg>
